<svg xmlns="http://www.w3.org/2000/svg" width="150" height="150" fill="none" viewBox="0 0 150 150">
  <g class="bunny-svg">
    <path fill="#4F46E5" d="M87.9 57.5c11.6-.5 19.4 3.5 28.5 10.6 7.4 5.9 12.3 11.4 12.3 20.6-.1 10.7-8.8 20.6-12.8 24.4v15h-.1c-3.8-1.6-8.2-4.5-11.5-8-4.8 2.5-11.7 5.5-20.4 5.7-15 .2-20.4-9.7-23.1-19.6-2.9-10.7-4.5-19.5-.6-29.5-4.5-3.9-12.6-10.8-19.9-12.9l-.5-.1c-.4 2.6-2.7 11-7.5 11.1-5 .1-8.4-8.7-9.8-15.7-.9-4.9-.9-9.7 1.5-13 1.5-2.1 3.8-3.8 7.9-3.3 9.3 1 23.2 13.6 32.8 27 2-2.5 9.3-7.8 15.3-10.6h-.1l.3-.1c-11.9-20-17.6-39.3-6-54.6 4.6-6.7 13.1-5.3 15.1 7.4 1.1 6.6-1.5 14.1-3.6 21.8-2.5 9.5-.2 17.6 2.2 23.8Z" class="main-body"/>
    <path fill="#8F88FF" d="M79.7 14c-2.1-.4-5.3 2.7-6.8 8.5-1 4.4 0 8.4.9 12.4 1.4 7 5.6 19.4 7.9 19.3 2.3-.1-3.2-8.2-.8-22.6 1.3-7.3 2.4-16.4-1.2-17.6Z" class="ear-hole-right"/>
    <path fill="#8F88FF" d="M59.4 69.9c.299-4.085-17.073-17.6-19.375-18.886.296 2.565.659 5.77.075 8.786 0 0 3 .8 5.4 1.9 8 3.9 13.7 10.7 13.9 8.2Z" class="ear-hole-left"/>
    <path fill="#4F46E5" d="M118.2 130.4c3.173 1.487 2.708 5.531-.517 6.866 3.002 1.417 2.145 5.097-.982 5.147 2.191.234 3.697 3.094 1.999 4.887-1.8 1.9-5.5.9-7.2.3-9.1-3-8.5-12.7-.8-16.3 2.5-1.2 5.7-1.7 7.5-.9Z" class="lower-hand"/>
    <path fill="#4F46E5" d="M118.845 43.389c3.173 1.487 2.708 5.53-.517 6.866 3.002 1.416 2.145 5.097-.982 5.147 2.191.234 3.697 3.094 1.999 4.887-1.8 1.9-5.5.9-7.2.3-9.1-3-8.5-12.7-.8-16.3 2.5-1.2 5.7-1.7 7.5-.9Z" class="upper-hand"/>
    <path fill="#8F88FF" d="M94.8 92.2c-.3 2-1.3 3.5-3.7 3.4-4.8-.2-7.2-2.3-2.1-5.3 2-1.3 4.5-3 5.6-1.3.5.8.4 2.5.2 3.2Z" class="nose"/>
    <path fill="#8F88FF" d="M84.862 110.408c2.792-2.077 3.745-5.521 2.13-7.692-1.616-2.171-5.188-2.248-7.98-.171-2.791 2.077-3.745 5.521-2.13 7.692 1.616 2.171 5.189 2.248 7.98.171Z" class="cheek-left"/>
    <path fill="#8F88FF" d="M110.618 92.372c3.107-1.302 4.812-4.298 3.809-6.692-1.004-2.394-4.336-3.279-7.443-1.976-3.107 1.302-4.812 4.298-3.808 6.692 1.003 2.394 4.335 3.279 7.442 1.976Z" class="cheek-right"/>
    <g class="eye-left">
      <ellipse cx="76.593" cy="91.926" fill="#fff" class="eye" rx="4.228" ry="5.5" transform="rotate(-34.32 76.593 91.926)"/>
      <path fill="#272224" d="M74 94a2 2 0 1 0 0-4 2 2 0 0 0 0 4Z" class="pupil"/>
    </g>
    <g class="eye-right">
      <ellipse cx="97.593" cy="78.926" fill="#fff" class="eye" rx="4.228" ry="5.5" transform="rotate(-34.32 97.593 78.926)"/>
      <path fill="#272224" d="M95 81a2 2 0 1 0 0-4 2 2 0 0 0 0 4Z" class="pupil"/>
    </g>
  </g>
</svg>
