<svg xmlns="http://www.w3.org/2000/svg" viewBox="94 -6.5 118.7 118">
<!-- SVG created with Arrow, by QuiverAI (https://quiver.ai) -->
  <path d="m182.5 44c-0.5-4.6-1.8-11.4-5.7-19.9-6.6-14.7-20.8-28-27.8-29.5-3.4-0.7-5.5 0.7-6.7 3.7-1.3 3.3-0.8 10.3 1.7 17.9 8.9 3.5 22.3 12.9 30.9 27.5l0.1 0.4c-1 0.3-2.4 0.8-3.7 1.4-6.2-11-18.8-21.7-31-26.7-5.9-2.4-11.8-3.9-16.3-3.9-3.9 0-7.6 0.9-7.6 5.6s5.6 14.5 14.9 22.1c7.9 6.5 17.4 12.6 28.4 15 h-0.1c0.6 0.2 1.4 0.4 1.3 0.4-0.7 1.6-1.2 4.1-2.1 3.7v0.1c-3.8-1.5-8.6-2.9-15.1-2.9-20.5 0-33.2 17.2-34.8 30.4-0.9-0.2-1.7-0.4-2.9-0.4-5 0-9.7 3.9-9.8 9.1-0.3 6.2 4.5 9.6 9.1 9.6h59.9c0.2-4.7-3.6-7.9-8.4-7.8l-2.5 0.1 0.3-2.4c0-2 0.2-4.1-0.5-6.6-1.6-4.8-5.8-9.6-13-10.6l0.4-4.3c5.5 0.3 10.8 3.3 13.9 7.6 3 4.1 3.5 8.4 3.4 12.3 4.2 0.5 10.4 3.7 10.6 11.6h29c0-3.7-2.1-6.7-6.4-7.9-4.1-1.2-6.1-3.7-6-7.3 0-3.1 1.9-5.8 5.4-6.7 9.9-2.3 19.2-5 18.5-14.8-0.9-10.8-11.1-25.7-27.4-26.8zm-0.4 29-8.9-8.8 2.7-2.8 5.9 5.6 11.6-11.9 2.9 2.8-14.2 15.1z" fill="#4F46E5"/>
</svg>